<svg width="19" height="19" viewBox="0 0 19 19" fill="none" xmlns="http://www.w3.org/2000/svg">
<path d="M9.12909 4.7162C6.55517 4.7162 4.47904 6.79233 4.47904 9.36625C4.47904 11.9402 6.55517 14.0163 9.12909 14.0163C11.703 14.0163 13.7791 11.9402 13.7791 9.36625C13.7791 6.79233 11.703 4.7162 9.12909 4.7162ZM9.12909 12.3894C7.46575 12.3894 6.10595 11.0336 6.10595 9.36625C6.10595 7.69887 7.46171 6.34311 9.12909 6.34311C10.7965 6.34311 12.1522 7.69887 12.1522 9.36625C12.1522 11.0336 10.7924 12.3894 9.12909 12.3894ZM15.0539 4.52599C15.0539 5.129 14.5683 5.6106 13.9693 5.6106C13.3663 5.6106 12.8847 5.12496 12.8847 4.52599C12.8847 3.92703 13.3704 3.44139 13.9693 3.44139C14.5683 3.44139 15.0539 3.92703 15.0539 4.52599ZM18.1337 5.62679C18.0649 4.1739 17.7331 2.88694 16.6687 1.82662C15.6084 0.766296 14.3214 0.434439 12.8685 0.361592C11.3711 0.276605 6.88298 0.276605 5.38558 0.361592C3.93674 0.430392 2.64978 0.762249 1.58541 1.82257C0.521038 2.8829 0.193228 4.16985 0.120381 5.62274C0.0353937 7.12014 0.0353937 11.6083 0.120381 13.1057C0.189181 14.5586 0.521038 15.8456 1.58541 16.9059C2.64978 17.9662 3.93269 18.2981 5.38558 18.3709C6.88298 18.4559 11.3711 18.4559 12.8685 18.3709C14.3214 18.3021 15.6084 17.9703 16.6687 16.9059C17.729 15.8456 18.0609 14.5586 18.1337 13.1057C18.2187 11.6083 18.2187 7.12419 18.1337 5.62679ZM16.1993 14.7124C15.8836 15.5056 15.2725 16.1167 14.4752 16.4364C13.2813 16.9099 10.4484 16.8007 9.12909 16.8007C7.80975 16.8007 4.97278 16.9059 3.78295 16.4364C2.98973 16.1208 2.37863 15.5097 2.05891 14.7124C1.58541 13.5185 1.69468 10.6856 1.69468 9.36625C1.69468 8.04692 1.58946 5.20994 2.05891 4.02011C2.37458 3.22689 2.98568 2.61579 3.78295 2.29608C4.97683 1.82257 7.80975 1.93184 9.12909 1.93184C10.4484 1.93184 13.2854 1.82662 14.4752 2.29608C15.2684 2.61174 15.8795 3.22285 16.1993 4.02011C16.6728 5.21399 16.5635 8.04692 16.5635 9.36625C16.5635 10.6856 16.6728 13.5226 16.1993 14.7124Z" fill="#0C62C7"/>
</svg>
