<svg width="25" height="20" viewBox="0 0 25 20" fill="none" xmlns="http://www.w3.org/2000/svg">
<path d="M21.671 5.60991C21.6806 5.81437 21.6854 6.01953 21.6854 6.22743C21.6854 12.552 16.8719 19.8438 8.069 19.8438C5.36485 19.8438 2.85072 19.0528 0.732422 17.6939C1.1083 17.7373 1.489 17.7593 1.87384 17.7593C4.11811 17.7593 6.17926 16.9972 7.81635 15.7119C5.72421 15.672 3.95633 14.2903 3.34776 12.3882C3.63965 12.4446 3.93843 12.4742 4.24822 12.4742C4.68538 12.4742 5.10738 12.4164 5.50805 12.3063C3.32091 11.8663 1.66937 9.93255 1.66937 7.61461C1.66937 7.59465 1.66937 7.57468 1.66937 7.55472C2.31581 7.91339 3.05311 8.12818 3.83792 8.15296C2.55469 7.29587 1.70999 5.82952 1.70999 4.16903C1.70999 3.29197 1.94612 2.47068 2.35711 1.76298C4.71636 4.6585 8.24455 6.56338 12.2202 6.76303C12.1397 6.41262 12.0963 6.04844 12.0963 5.67256C12.0963 3.03037 14.2387 0.888672 16.8829 0.888672C18.2584 0.888672 19.5024 1.4697 20.3733 2.39771C21.4624 2.1836 22.4881 1.78501 23.4134 1.23702C23.0547 2.35502 22.2974 3.29266 21.3088 3.88333C22.2768 3.76905 23.1993 3.51158 24.0564 3.13157C23.4161 4.09193 22.6052 4.93456 21.671 5.60991Z" fill="#0C62C7"/>
</svg>
